<svg width="73" height="16" viewBox="0 0 73 16" fill="none" xmlns="http://www.w3.org/2000/svg">
<g clip-path="url(#clip0_42_36)">
<path d="M8.46958 12.0453C8.20458 12.4776 7.84015 12.8243 7.38648 13.0756C6.93235 13.3271 6.41831 13.4546 5.85858 13.4546C5.28463 13.4546 4.75307 13.3129 4.27855 13.0335C3.80349 12.7542 3.42826 12.3648 3.16322 11.876C2.8972 11.3862 2.7623 10.8245 2.7623 10.2065C2.7623 9.60342 2.90075 9.04552 3.17384 8.54823C3.44689 8.05139 3.82265 7.6543 4.29073 7.36788C4.75845 7.08181 5.29325 6.93673 5.88027 6.93673C6.38275 6.93673 6.85363 7.0499 7.27984 7.2732C7.7065 7.49713 8.07195 7.80942 8.36597 8.20127L8.42367 8.27808L10.4527 6.57564L10.3955 6.50603C9.85453 5.8482 9.18386 5.32576 8.40206 4.95311C7.61991 4.58028 6.76416 4.39129 5.85858 4.39129C4.79219 4.39129 3.7994 4.65069 2.90782 5.16228C2.01589 5.67415 1.30068 6.38558 0.782104 7.27694C0.263131 8.16856 0 9.15415 0 10.2065C0 11.2591 0.263176 12.2411 0.782238 13.1255C1.30072 14.0097 2.01589 14.7174 2.90782 15.229C3.7994 15.7406 4.79219 16 5.85858 16C6.83679 16 7.75544 15.7814 8.58901 15.3502C9.42147 14.9196 10.1179 14.3231 10.659 13.5773L10.7133 13.5026L8.52021 11.9627L8.46958 12.0453Z" fill="#1E1E1E" style="fill:#1E1E1E;fill:color(display-p3 0.1176 0.1176 0.1176);fill-opacity:1;"/>
<path d="M20.3982 5.16211C19.4993 4.6506 18.4957 4.39129 17.4152 4.39129C16.3488 4.39129 15.356 4.65069 14.4645 5.16228C13.5725 5.67415 12.8573 6.38558 12.3387 7.27694C11.8198 8.16856 11.5566 9.15415 11.5566 10.2065C11.5566 11.2591 11.8198 12.2411 12.3389 13.1255C12.8574 14.0097 13.5725 14.7174 14.4645 15.229C15.356 15.7406 16.3488 16 17.4152 16C18.4957 16 19.4993 15.7407 20.3982 15.2292C21.297 14.7178 22.0159 14.01 22.5349 13.1255C23.054 12.2406 23.3171 11.2585 23.3171 10.2065C23.3171 9.15477 23.054 8.16909 22.5351 7.27694C22.0159 6.38531 21.297 5.67379 20.3982 5.16211ZM20.1436 11.8752C19.8712 12.3642 19.4921 12.7539 19.0169 13.0335C18.5421 13.3129 18.0032 13.4546 17.4152 13.4546C16.8413 13.4546 16.3097 13.3129 15.8352 13.0335C15.3601 12.7542 14.9849 12.3648 14.7199 11.876C14.4538 11.3862 14.3189 10.8245 14.3189 10.2065C14.3189 9.60342 14.4574 9.04552 14.7305 8.54823C15.0035 8.05139 15.3793 7.6543 15.8474 7.36788C16.3151 7.08181 16.8499 6.93673 17.4369 6.93673C18.0236 6.93673 18.5584 7.08181 19.0264 7.36779C19.4947 7.65456 19.8705 8.05175 20.1433 8.54823C20.4164 9.04552 20.5549 9.60342 20.5549 10.2065C20.5549 10.824 20.4165 11.3853 20.1436 11.8752Z" fill="#1E1E1E" style="fill:#1E1E1E;fill:color(display-p3 0.1176 0.1176 0.1176);fill-opacity:1;"/>
<path d="M37.9218 10.4884C37.9218 11.1201 37.7979 11.6671 37.5535 12.1143C37.3099 12.5597 36.9862 12.8978 36.5914 13.1192C36.1953 13.3418 35.7543 13.4546 35.2808 13.4546C34.8075 13.4546 34.3925 13.353 34.0472 13.1524C33.7023 12.9527 33.4258 12.6619 33.2253 12.2883C33.0239 11.9135 32.9218 11.4684 32.9218 10.9654V4.65149H30.1812V11.5074C30.1812 12.3577 30.3673 13.131 30.7342 13.8059C31.1019 14.4829 31.6277 15.0237 32.297 15.413C32.966 15.8025 33.7437 16 34.6087 16C35.5172 16 36.3574 15.7694 37.1061 15.3146C37.4519 15.1044 37.7692 14.8491 38.0519 14.5538V15.7398H40.6624V4.65149H37.9218V10.4884Z" fill="#1E1E1E" style="fill:#1E1E1E;fill:color(display-p3 0.1176 0.1176 0.1176);fill-opacity:1;"/>
<path d="M57.7883 4.94485C57.127 4.57753 56.3826 4.39129 55.576 4.39129C54.7397 4.39129 53.9657 4.59229 53.2756 4.98876C52.7464 5.29269 52.2965 5.68899 51.9367 6.16787C51.6119 5.66241 51.1895 5.24834 50.6799 4.93596C50.0895 4.57451 49.4316 4.39129 48.7243 4.39129C47.9583 4.39129 47.2558 4.59691 46.6362 5.00245C46.2824 5.23429 45.9661 5.52133 45.6931 5.85789V4.65149H43.1909V15.7398H45.9532V9.25246C45.9532 8.8215 46.0482 8.42369 46.2353 8.06997C46.4219 7.71777 46.6808 7.43766 47.005 7.23755C47.3285 7.03798 47.6881 6.93673 48.0737 6.93673C48.4731 6.93673 48.8362 7.03781 49.1528 7.23711C49.4703 7.43748 49.7258 7.71768 49.9122 8.06997C50.0995 8.4236 50.1944 8.82141 50.1944 9.25246V15.7398H52.9349V9.25246C52.9349 8.8215 53.0333 8.42404 53.2274 8.07113C53.421 7.71821 53.6804 7.43757 53.9983 7.23711C54.3146 7.03781 54.6776 6.93673 55.0773 6.93673C55.477 6.93673 55.8438 7.03798 56.1677 7.23755C56.4914 7.43748 56.7465 7.71715 56.9259 8.06864C57.1063 8.42316 57.1978 8.8215 57.1978 9.25246V15.7398H59.9602V8.55863C59.9602 7.79395 59.7623 7.08492 59.372 6.45092C58.9821 5.81878 58.4494 5.31207 57.7883 4.94485Z" fill="#1E1E1E" style="fill:#1E1E1E;fill:color(display-p3 0.1176 0.1176 0.1176);fill-opacity:1;"/>
<path d="M72.2858 6.60711C71.9178 5.93061 71.3884 5.38621 70.7123 4.9892C70.0363 4.59246 69.2621 4.39129 68.4112 4.39129C67.4877 4.39129 66.64 4.62562 65.8917 5.08788C65.5549 5.29589 65.245 5.54525 64.968 5.83096V4.65149H62.3359V15.7398H65.0982V9.90291C65.0982 9.28464 65.2186 8.7446 65.4561 8.29772C65.6925 7.85271 66.0162 7.51118 66.4182 7.28254C66.8213 7.0531 67.2657 6.93673 67.7391 6.93673C68.1975 6.93673 68.6088 7.04189 68.9614 7.24947C69.3136 7.45659 69.5939 7.7511 69.7946 8.12464C69.9961 8.50005 70.0982 8.93786 70.0982 9.4259V15.7398H72.8388V8.9055C72.8388 8.05628 72.6527 7.28298 72.2858 6.60711Z" fill="#1E1E1E" style="fill:#1E1E1E;fill:color(display-p3 0.1176 0.1176 0.1176);fill-opacity:1;"/>
<path d="M23.7266 0V1.84061H24.1911C24.6972 1.84061 25.1075 2.25088 25.1075 2.75697V15.7398H27.8702V0H23.7266Z" fill="#1E1E1E" style="fill:#1E1E1E;fill:color(display-p3 0.1176 0.1176 0.1176);fill-opacity:1;"/>
</g>
<defs>
<clipPath id="clip0_42_36">
<rect width="72.8389" height="16" fill="white" style="fill:white;fill-opacity:1;"/>
</clipPath>
</defs>
</svg>
