<svg width="60" height="16" viewBox="0 0 60 16" fill="none" xmlns="http://www.w3.org/2000/svg">
<g clip-path="url(#clip0_42_76)">
<path d="M11.3991 6.84818H6.42744C6.36582 6.84822 6.30674 6.87271 6.26318 6.91627C6.21961 6.95984 6.19512 7.01892 6.19509 7.08053V9.5113C6.19512 9.57295 6.2196 9.63206 6.26316 9.67569C6.30671 9.71931 6.36579 9.74389 6.42744 9.74402H8.3669V12.7639C8.3669 12.7639 7.93141 12.9125 6.72742 12.9125C5.30697 12.9125 3.32267 12.3933 3.32267 8.03C3.32267 3.6658 5.3889 3.09147 7.32873 3.09147C9.00789 3.09147 9.73129 3.38726 10.1915 3.52955C10.3362 3.5739 10.47 3.43001 10.47 3.30151L11.0246 0.95304C11.0246 0.893044 11.0043 0.820605 10.9358 0.771451C10.7489 0.638153 9.60846 0 6.72742 0C3.40841 0 0.00390625 1.41219 0.00390625 8.20013C0.00390625 14.9886 3.90181 16 7.18644 16C9.9061 16 11.5559 14.8378 11.5559 14.8378C11.6239 14.8001 11.6313 14.7051 11.6313 14.6615V7.08041C11.6313 6.95229 11.5274 6.84818 11.3991 6.84818ZM37.0212 0.813337C37.0214 0.782828 37.0157 0.752569 37.0042 0.724297C36.9927 0.696026 36.9758 0.6703 36.9543 0.648595C36.9329 0.626891 36.9074 0.609637 36.8792 0.597824C36.8511 0.58601 36.8209 0.579871 36.7904 0.579759H33.9909C33.9604 0.579872 33.9301 0.586003 33.9019 0.597803C33.8737 0.609603 33.8481 0.626838 33.8266 0.648528C33.8051 0.670218 33.788 0.695937 33.7765 0.724215C33.7649 0.752492 33.759 0.782776 33.7591 0.813337L33.7598 6.22321H29.3964V0.813337C29.3966 0.782817 29.3908 0.752551 29.3793 0.724279C29.3678 0.696006 29.3508 0.670282 29.3294 0.64858C29.3079 0.626879 29.2824 0.609628 29.2542 0.597818C29.2261 0.586008 29.1959 0.579871 29.1654 0.579759H26.3661C26.3045 0.580084 26.2455 0.604871 26.2021 0.648672C26.1588 0.692474 26.1346 0.751703 26.1349 0.813337V15.4618C26.1349 15.5909 26.2387 15.696 26.3661 15.696H29.1654C29.2934 15.696 29.3964 15.5907 29.3964 15.4618V9.19604H33.7598L33.7522 15.4618C33.7522 15.5909 33.8561 15.696 33.9841 15.696H36.7902C36.9184 15.696 37.0209 15.5907 37.0212 15.4618V0.813337ZM16.6816 2.73568C16.6816 1.72757 15.8734 0.913002 14.8764 0.913002C13.8804 0.913002 13.0716 1.72757 13.0716 2.73568C13.0716 3.74255 13.8804 4.55922 14.8764 4.55922C15.8734 4.55922 16.6816 3.74255 16.6816 2.73568ZM16.4814 12.3718V5.61007C16.4816 5.54843 16.4573 5.48923 16.4139 5.44546C16.3704 5.4017 16.3114 5.37694 16.2498 5.37662H13.4593C13.3313 5.37662 13.2167 5.50868 13.2167 5.63718V15.3245C13.2167 15.6093 13.3941 15.6939 13.6238 15.6939H16.1379C16.4138 15.6939 16.4814 15.5583 16.4814 15.3201V12.3718ZM47.6598 5.39867H44.8819C44.7545 5.39867 44.6508 5.50363 44.6508 5.63286V12.8154C44.6508 12.8154 43.945 13.3318 42.9434 13.3318C41.9418 13.3318 41.6761 12.8774 41.6761 11.8966V5.63286C41.6761 5.50363 41.5725 5.39867 41.4451 5.39867H38.6257C38.4985 5.39867 38.3942 5.50363 38.3942 5.63286V12.3708C38.3942 15.2839 40.0178 15.9966 42.2514 15.9966C44.0837 15.9966 45.5609 14.9844 45.5609 14.9844C45.5609 14.9844 45.6313 15.5177 45.6631 15.581C45.695 15.6441 45.7779 15.7078 45.8675 15.7078L47.6612 15.6999C47.7883 15.6999 47.8927 15.5947 47.8927 15.4661L47.8917 5.63299C47.8917 5.50363 47.7878 5.39867 47.6598 5.39867ZM54.1565 13.323C53.193 13.2936 52.5395 12.8563 52.5395 12.8563V8.21763C52.5395 8.21763 53.1841 7.82241 53.9752 7.7517C54.9755 7.66214 55.9394 7.96434 55.9394 10.3505C55.9395 12.8669 55.5045 13.3635 54.1565 13.323ZM55.2522 5.06974C53.6745 5.06974 52.6013 5.77367 52.6013 5.77367V0.813459C52.6013 0.684104 52.498 0.579759 52.3703 0.579759H49.5631C49.5325 0.579904 49.5023 0.586065 49.4742 0.597889C49.446 0.609714 49.4205 0.626971 49.399 0.648674C49.3775 0.670377 49.3605 0.6961 49.3489 0.724374C49.3374 0.752649 49.3315 0.78292 49.3317 0.813459V15.4618C49.3317 15.5909 49.4354 15.696 49.5634 15.696H51.5113C51.5989 15.696 51.6653 15.6507 51.7143 15.5716C51.7627 15.4929 51.8326 14.8963 51.8326 14.8963C51.8326 14.8963 52.9805 15.9841 55.1535 15.9841C57.7047 15.9841 59.1677 14.6901 59.1677 10.175C59.1677 5.65972 56.8311 5.06974 55.2522 5.06974ZM24.5269 5.37539H22.4271L22.4239 2.60115C22.4239 2.49618 22.3698 2.4437 22.2484 2.4437H19.3868C19.2756 2.4437 19.2159 2.49274 19.2159 2.59955V5.46643C19.2159 5.46643 17.7819 5.81248 17.6849 5.84057C17.6365 5.85459 17.594 5.88393 17.5638 5.92419C17.5336 5.96445 17.5172 6.01345 17.5172 6.0638V7.86529C17.5172 7.99489 17.6207 8.09911 17.7487 8.09911H19.2159V12.4329C19.2159 15.652 21.4738 15.9682 22.9975 15.9682C23.6936 15.9682 24.5264 15.7447 24.6639 15.6937C24.7471 15.6632 24.7954 15.5771 24.7954 15.4837L24.7977 13.502C24.7977 13.3726 24.6886 13.2683 24.5656 13.2683C24.4433 13.2683 24.1302 13.318 23.808 13.318C22.7766 13.318 22.4271 12.8384 22.4271 12.2177L22.4269 8.09899H24.5269C24.6549 8.09899 24.7585 7.99464 24.7585 7.86516V5.60859C24.7587 5.57806 24.7528 5.5478 24.7412 5.51955C24.7297 5.49129 24.7126 5.46559 24.6911 5.44393C24.6696 5.42227 24.644 5.40506 24.6159 5.3933C24.5877 5.38154 24.5575 5.37545 24.5269 5.37539Z" fill="#1E1E1E" style="fill:#1E1E1E;fill:color(display-p3 0.1176 0.1176 0.1176);fill-opacity:1;"/>
</g>
<defs>
<clipPath id="clip0_42_76">
<rect width="59.1716" height="16" fill="white" style="fill:white;fill-opacity:1;"/>
</clipPath>
</defs>
</svg>
