<svg width="65" height="16" viewBox="0 0 65 16" fill="none" xmlns="http://www.w3.org/2000/svg">
<g clip-path="url(#clip0_42_85)">
<path d="M2.51827 0.00439453V13.0779H7.24855V15.3296H0V0.00439453H2.51827ZM16.1306 6.50426V5.12602H18.5241V15.3352H16.1419V13.9513C15.8129 14.4618 15.3592 14.8588 14.7693 15.1424C14.1795 15.443 13.5783 15.5848 12.9827 15.5848C12.2057 15.5848 11.4967 15.443 10.8558 15.1594C10.2293 14.8879 9.66555 14.4901 9.19964 13.991C8.73774 13.4958 8.37228 12.9187 8.122 12.2895C7.86427 11.632 7.73526 10.9311 7.74199 10.225C7.74199 9.51031 7.87244 8.82403 8.12767 8.18311C8.37495 7.54556 8.74059 6.96054 9.20531 6.45889C9.66693 5.95707 10.2268 5.55551 10.8501 5.27916C11.4967 4.99557 12.2114 4.85377 12.9771 4.85377C13.5726 4.85377 14.1681 5.00124 14.758 5.2905C15.3479 5.58543 15.8016 5.98246 16.1192 6.49292L16.1306 6.50426ZM15.915 11.4784C16.0645 11.0793 16.1413 10.6568 16.1419 10.2306C16.1419 9.78823 16.0625 9.37986 15.915 8.98284C15.7792 8.60081 15.5713 8.24845 15.3025 7.9449C15.0343 7.65289 14.7103 7.4176 14.3496 7.25294C13.9618 7.07502 13.5398 6.98403 13.1132 6.98637C12.6594 6.98637 12.2511 7.08279 11.8881 7.25861C11.5325 7.42378 11.2126 7.65692 10.9466 7.9449C10.6785 8.24698 10.474 8.59998 10.3453 8.98284C10.2047 9.38374 10.1337 9.80577 10.1355 10.2306C10.1355 10.6674 10.2035 11.0814 10.3453 11.4784C10.4815 11.8754 10.6856 12.2158 10.9466 12.4993C11.2103 12.7957 11.5304 13.0367 11.8881 13.2083C12.2511 13.3785 12.6594 13.4692 13.1132 13.4692C13.5669 13.4692 13.981 13.3841 14.3496 13.2083C14.7114 13.0405 15.0355 12.8012 15.3025 12.505C15.5694 12.2065 15.7773 11.8601 15.915 11.4841V11.4784ZM20.4071 15.3352V5.12602H26.8843V7.47414H22.7892V15.3296H20.4071V15.3352ZM35.5338 6.50426V5.12602H37.9159V15.3352H35.5338V13.9513C35.2161 14.4618 34.7567 14.8588 34.1725 15.1424C33.577 15.443 32.9814 15.5848 32.3802 15.5848C31.6032 15.5848 30.8942 15.443 30.2533 15.1594C29.6268 14.8879 29.0631 14.4901 28.5972 13.991C28.1353 13.4958 27.7698 12.9187 27.5195 12.2895C27.2637 11.6316 27.1366 10.9308 27.1452 10.225C27.1452 9.51031 27.27 8.82403 27.5252 8.18311C27.7725 7.54556 28.1381 6.96054 28.6028 6.45889C29.0644 5.95707 29.6243 5.55551 30.2476 5.27916C30.8942 4.99557 31.6089 4.85377 32.3746 4.85377C32.9701 4.85377 33.5656 5.00124 34.1555 5.2905C34.7454 5.58543 35.2048 5.98246 35.5167 6.49292L35.5338 6.50426ZM35.3182 11.4784C35.4638 11.0786 35.5368 10.6561 35.5338 10.2306C35.5338 9.78823 35.46 9.37986 35.3182 8.98284C35.1841 8.60126 34.9781 8.24892 34.7113 7.9449C34.4398 7.65165 34.1119 7.41629 33.7471 7.25294C33.3785 7.08279 32.9644 6.98637 32.5164 6.98637C32.0626 6.98637 31.6543 7.08279 31.2856 7.25861C30.93 7.42378 30.6101 7.65692 30.3441 7.9449C30.076 8.24698 29.8715 8.59998 29.7429 8.98284C29.6041 9.38407 29.535 9.8061 29.5387 10.2306C29.5387 10.6674 29.6067 11.0814 29.7429 11.4784C29.8847 11.8754 30.0832 12.2158 30.3441 12.4993C30.6078 12.7957 30.9279 13.0367 31.2856 13.2083C31.6543 13.3785 32.0626 13.4692 32.5164 13.4692C32.9701 13.4692 33.3785 13.3841 33.7528 13.2083C34.1186 13.0418 34.4467 12.8025 34.717 12.505C34.9819 12.2061 35.1878 11.8597 35.3239 11.4841L35.3182 11.4784ZM47.4899 5.12602H49.9117L45.9982 15.3352H42.9922L39.0786 5.12602H41.4891L44.4952 12.9417L47.4899 5.13169V5.12602ZM55.1128 4.86512C58.3627 4.86512 60.5804 7.74639 60.1607 11.1154H52.2372C52.2372 11.9889 53.1333 13.6904 55.2432 13.6904C57.0582 13.6904 58.2776 12.1023 58.2776 12.1023L59.8884 13.3501C58.4421 14.8815 57.2624 15.5905 55.4077 15.5905C52.1067 15.5905 49.872 13.4919 49.872 10.2193C49.872 7.25294 52.1861 4.85377 55.1071 4.85377L55.1128 4.86512ZM52.2485 9.34583H57.977C57.9543 9.14732 57.6367 6.7595 55.0958 6.7595C52.5434 6.7595 52.2712 9.15299 52.2485 9.34583ZM61.7204 15.3182V0.00439453H64.1026V15.3296H61.7204V15.3182Z" fill="#1E1E1E" style="fill:#1E1E1E;fill:color(display-p3 0.1176 0.1176 0.1176);fill-opacity:1;"/>
</g>
<defs>
<clipPath id="clip0_42_85">
<rect width="64.1026" height="16" fill="white" style="fill:white;fill-opacity:1;"/>
</clipPath>
</defs>
</svg>
