<svg width="30" height="16" viewBox="0 0 30 16" fill="none" xmlns="http://www.w3.org/2000/svg">
<g clip-path="url(#clip0_42_87)">
<path d="M20.2586 9.34028C20.4289 9.21934 20.6132 9.07727 20.7846 8.94225C22.1055 7.88552 23.1153 6.72665 23.3149 6.08557C23.3208 6.06443 23.3384 6.00455 23.3384 5.95876C23.3384 5.89301 23.3067 5.84604 23.2468 5.84604C22.6398 5.84604 20.6942 7.78337 20.2234 9.3532V9.35907L20.2586 9.34028ZM15.3801 9.11719C17.2199 7.72701 19.1526 5.70397 19.3592 4.87385C19.3651 4.84685 19.371 4.81984 19.371 4.79519C19.3686 4.74 19.3381 4.69186 19.2688 4.69186C18.6864 4.69069 15.9906 7.17752 15.3801 9.11719ZM4.08483 10.3383C3.59874 10.0013 2.84846 9.70661 2.17686 9.70661C1.52638 9.70661 1.10956 9.96257 1.10956 10.2855C1.10956 10.6553 1.61444 10.8173 2.18038 10.8173C2.86608 10.8173 3.48837 10.633 4.08483 10.3383ZM9.71953 5.97989C11.0381 5.5572 12.2897 4.67308 13.2232 3.7502C14.085 2.89543 14.7754 1.88215 14.7754 1.37961C14.7754 1.26455 14.6932 1.19645 14.5887 1.19645C14.1895 1.19645 13.4322 1.72599 12.413 2.74749C11.6193 3.54121 10.6952 4.62728 9.71953 5.97989ZM29.3523 9.16768C28.2193 10.2949 24.6898 13.3934 23.7564 16L22.5998 15.7018C22.9779 14.6216 24.1168 12.9425 25.3861 11.6475C25.116 11.7484 24.8342 11.7872 24.6088 11.7872C24.2659 11.7872 23.9994 11.6839 23.8386 11.489C23.7235 11.3492 23.666 11.1661 23.666 10.9489C23.666 10.9019 23.6695 10.8537 23.6754 10.8009C22.5611 11.4796 21.6652 11.786 20.787 11.786C20.1036 11.786 19.5283 11.4878 19.2618 10.9665C18.1557 11.5148 17.0943 11.786 16.2078 11.786C15.3824 11.786 14.7167 11.4584 14.4114 10.8631C13.2936 11.4913 12.3414 11.786 11.5841 11.786C11.1485 11.786 10.8021 11.6651 10.5813 11.4361C10.4181 11.267 10.3324 11.0404 10.3195 10.7786C9.60211 11.2518 8.55478 11.786 7.48162 11.786C6.38262 11.786 5.64644 11.4091 5.07463 11.0346C4.16233 11.5394 3.15844 11.786 2.09819 11.786C1.2939 11.786 1.06754e-06 11.4526 1.06754e-06 10.3031C-0.00117307 9.3755 0.966318 8.74617 2.26257 8.74617C3.36391 8.74617 4.42651 9.20995 5.09224 9.69252C5.72393 9.18882 6.38732 8.48433 7.17047 7.48984C6.99787 7.49923 6.82997 7.50393 6.66442 7.50393C5.16621 7.50393 3.91458 7.06245 3.23123 6.28869C2.87664 5.89535 2.68291 5.38226 2.68761 4.85272C2.68761 2.76862 5.3212 1.15066 7.62369 0.912306C7.77633 1.2575 7.91135 1.52286 8.05225 1.83988C5.77794 2.10406 3.88171 3.4508 3.88171 4.76701C3.88171 5.63235 4.85389 6.50121 6.91803 6.50121C7.27145 6.50121 7.62721 6.46716 7.97593 6.41902C9.79937 3.90519 12.5903 0 14.9926 0C15.7029 0 16.0751 0.432083 16.0751 1.00976C16.0751 2.19916 15.0525 3.47898 14.3856 4.14589C13.3394 5.19792 11.4455 6.76304 8.80135 7.28084C7.7728 8.71329 6.92742 9.66199 6.08204 10.3477C6.59397 10.6236 7.07537 10.7939 7.64835 10.7939C9.0714 10.7939 10.4522 9.49174 11.5301 8.38688L11.5676 8.35048L12.4083 9.008L12.3696 9.05379C11.8929 9.59977 11.4537 10.1786 11.4537 10.5015C11.4537 10.7469 11.6616 10.795 11.84 10.795C12.3848 10.795 13.2255 10.4416 14.2141 9.83459V9.82637C14.3233 7.38299 17.6579 3.64688 19.6809 3.64688C20.2527 3.64688 20.5803 3.93102 20.5803 4.43003C20.5803 5.65466 18.468 8.28003 15.3941 10.2902V10.2913C15.5527 10.633 15.919 10.7986 16.5401 10.7986C17.025 10.7986 17.9737 10.5825 19.1009 9.9931C19.2312 8.72738 19.9486 7.36773 20.8586 6.39906C21.7709 5.42922 22.7947 4.79871 23.6789 4.79871C24.2248 4.79871 24.5466 5.09811 24.5466 5.57012C24.5466 6.63859 23.3067 8.46437 20.3185 10.377C20.4512 10.633 20.7071 10.795 21.1063 10.795C21.9963 10.795 23.5638 9.84516 24.7849 8.67807L25.662 9.35907C25.2874 9.81346 24.9082 10.3125 24.9211 10.6001C24.9246 10.6929 24.9869 10.7563 25.1348 10.7563C26.0354 10.7563 27.4514 9.56806 28.514 8.51956L29.3523 9.16768ZM13.0611 6.71843C13.4592 6.71843 13.7797 7.04132 13.7797 7.43817C13.7797 7.83621 13.458 8.15792 13.06 8.15792C12.6619 8.15792 12.3402 7.83621 12.3402 7.43817C12.3402 7.04014 12.6631 6.71843 13.0611 6.71843Z" fill="#1E1E1E" style="fill:#1E1E1E;fill:color(display-p3 0.1176 0.1176 0.1176);fill-opacity:1;"/>
</g>
<defs>
<clipPath id="clip0_42_87">
<rect width="29.3523" height="16" fill="white" style="fill:white;fill-opacity:1;"/>
</clipPath>
</defs>
</svg>
