<svg width="45" height="16" viewBox="0 0 45 16" fill="none" xmlns="http://www.w3.org/2000/svg">
<g clip-path="url(#clip0_42_73)">
<path d="M5.69321 0.711501C2.80128 4.10775 0.0280227 8.31983 0.000226219 11.468C-0.0106178 12.6526 0.367757 13.6867 1.27509 14.4704C2.58028 15.5976 4.01767 15.996 5.44901 15.9978C7.54095 16.0006 9.61786 15.1566 11.2445 14.5065C13.9834 13.4109 44.2572 0.264219 44.2572 0.264219C44.5493 0.118099 44.4942 -0.0646024 44.1289 0.0266797C43.9817 0.0638103 11.1708 8.95531 11.1708 8.95531C10.5375 9.13334 9.89081 9.22545 9.26104 9.22874C6.7398 9.2435 4.49604 7.84413 4.51416 4.89442C4.52109 3.74014 4.87524 2.34881 5.69321 0.711501Z" fill="#1E1E1E" style="fill:#1E1E1E;fill:color(display-p3 0.1176 0.1176 0.1176);fill-opacity:1;"/>
</g>
<defs>
<clipPath id="clip0_42_73">
<rect width="44.4444" height="16" fill="white" style="fill:white;fill-opacity:1;"/>
</clipPath>
</defs>
</svg>
