<svg width="85" height="16" viewBox="0 0 85 16" fill="none" xmlns="http://www.w3.org/2000/svg">
<g clip-path="url(#clip0_42_82)">
<path d="M51.448 3.03048V13.5301H54.411V3.03048H51.448ZM28.1353 3.01268V13.5212H31.125V5.36175L33.4562 5.37065C34.2215 5.37065 34.7554 5.5575 35.1202 5.94902C35.5918 6.4473 35.7786 7.25702 35.7786 8.72519V13.5212H38.6794V7.71971C38.6794 3.57325 36.0367 3.01268 33.4562 3.01268H28.1353ZM56.2262 3.03048V13.5301H61.0311C63.5937 13.5301 64.4301 13.103 65.3288 12.1509C65.9695 11.4836 66.3788 10.0065 66.3788 8.39596C66.3788 6.9189 66.0318 5.60199 65.4178 4.78338C64.3323 3.31521 62.7484 3.03048 60.3815 3.03048H56.2262ZM59.1625 5.30836H60.4349C62.2857 5.30836 63.4781 6.13587 63.4781 8.28918C63.4781 10.4425 62.2857 11.2789 60.4349 11.2789H59.1625V5.30836ZM47.1769 3.03048L44.7033 11.3501L42.3364 3.03048H39.1332L42.5144 13.5301H46.7854L50.2023 3.03048H47.1769ZM67.7669 13.5301H70.7299V3.03048H67.7669V13.5301ZM76.0776 3.03048L71.94 13.5212H74.8586L75.517 11.6615H80.4109L81.0338 13.5123H84.2104L80.0372 3.03048H76.0776ZM77.9996 4.94354L79.797 9.85523H76.1488L77.9996 4.94354Z" fill="#1E1E1E" style="fill:#1E1E1E;fill:color(display-p3 0.1176 0.1176 0.1176);fill-opacity:1;"/>
<path d="M9.01366 4.77448V3.333C9.15603 3.32411 9.29839 3.31521 9.44076 3.31521C13.3915 3.19064 15.9808 6.71424 15.9808 6.71424C15.9808 6.71424 13.1868 10.5938 10.1882 10.5938C9.78778 10.5938 9.39627 10.5315 9.02256 10.4069V6.02909C10.5619 6.21595 10.8733 6.8922 11.7898 8.43155L13.8453 6.70534C13.8453 6.70534 12.3415 4.73889 9.81448 4.73889C9.54754 4.72999 9.2806 4.74778 9.01366 4.77448ZM9.01366 0.00515747V2.15847L9.44076 2.13178C14.9308 1.94492 18.5167 6.63416 18.5167 6.63416C18.5167 6.63416 14.4058 11.6348 10.1259 11.6348C9.75219 11.6348 9.38737 11.5992 9.02256 11.5369V12.8716C9.32509 12.9072 9.63652 12.9339 9.93905 12.9339C13.9253 12.9339 16.8083 10.8963 19.6023 8.49384C20.065 8.86755 21.9602 9.76625 22.3517 10.1578C19.7001 12.3823 13.516 14.1707 10.0102 14.1707C9.67211 14.1707 9.35178 14.153 9.03145 14.1174V15.9948H24.1758V0.00515747L9.01366 0.00515747ZM9.01366 10.4069V11.5458C5.32989 10.8874 4.30662 7.05236 4.30662 7.05236C4.30662 7.05236 6.07732 5.0948 9.01366 4.77448V6.0202H9.00476C7.46541 5.83334 6.25528 7.27481 6.25528 7.27481C6.25528 7.27481 6.94043 9.70396 9.01366 10.4069ZM2.47364 6.8922C2.47364 6.8922 4.65365 3.67113 9.02256 3.333V2.15847C4.18205 2.54998 0 6.64305 0 6.64305C0 6.64305 2.36686 13.4945 9.01366 14.1174V12.8716C4.13756 12.2666 2.47364 6.8922 2.47364 6.8922Z" fill="#1E1E1E" style="fill:#1E1E1E;fill:color(display-p3 0.1176 0.1176 0.1176);fill-opacity:1;"/>
</g>
<defs>
<clipPath id="clip0_42_82">
<rect width="84.2105" height="16" fill="white" style="fill:white;fill-opacity:1;"/>
</clipPath>
</defs>
</svg>
