<svg width="56" height="16" viewBox="0 0 56 16" fill="none" xmlns="http://www.w3.org/2000/svg">
<g clip-path="url(#clip0_42_32)">
<path d="M22.9629 7.85162C22.9629 5.72564 24.3287 4.24194 26.2229 4.24194C28.1172 4.24194 29.483 5.72564 29.483 7.85162C29.483 9.9776 28.1172 11.4613 26.2229 11.4613C24.3287 11.4613 22.9629 9.9776 22.9629 7.85162ZM28.231 7.85162C28.231 6.33131 27.4018 5.34354 26.2229 5.34354C25.0441 5.34354 24.2149 6.32725 24.2149 7.85162C24.2149 9.37593 25.0441 10.3597 26.2229 10.3597C27.4018 10.3597 28.231 9.37593 28.231 7.85162ZM32.9952 11.4613C32.3326 11.4613 31.8448 11.1971 31.5237 10.819V13.1117H30.3529V6.23376H31.5237V6.77846C31.8448 6.39636 32.3326 6.1362 32.9952 6.1362C34.4301 6.1362 35.2471 7.34755 35.2471 8.79875C35.2471 10.2499 34.426 11.4613 32.9952 11.4613ZM31.4911 8.65238V8.95318C31.4911 9.90031 32.0358 10.4369 32.7593 10.4369C33.6089 10.4369 34.0683 9.77433 34.0683 8.79875C34.0683 7.82317 33.6089 7.16056 32.7593 7.16056C32.0358 7.16056 31.4911 7.68898 31.4911 8.65238ZM38.4137 11.4613C36.9503 11.4613 35.926 10.38 35.926 8.79875C35.926 7.21746 36.9422 6.1362 38.3649 6.1362C39.7877 6.1362 40.6373 7.25809 40.6373 8.66456V9.05482H37.0479C37.1373 9.93287 37.6617 10.4694 38.4137 10.4694C38.9909 10.4694 39.4462 10.1768 39.6047 9.64828L40.6088 10.0304C40.247 10.9288 39.4381 11.4653 38.4137 11.4653V11.4613ZM38.3568 7.11993C37.7511 7.11993 37.2837 7.48167 37.1088 8.17273H39.4584C39.4503 7.60772 39.0966 7.11993 38.3568 7.11993ZM41.5193 11.3556V6.23376H42.6901V6.77846C42.9827 6.437 43.4421 6.1362 44.1046 6.1362C45.1778 6.1362 45.82 6.87602 45.82 7.98171V11.3556H44.6494V8.32313C44.6494 7.68898 44.3973 7.22964 43.751 7.22964C43.2225 7.22964 42.686 7.6199 42.686 8.35158V11.3556H41.5152H41.5193ZM49.2508 4.35169H50.6654L53.3198 11.3556H52.0597L51.454 9.75402H48.4297L47.8362 11.3556H46.5964L49.2508 4.35169ZM49.9337 5.73783L48.8402 8.66456H51.0435L49.9297 5.73783H49.9337ZM55.3279 4.35169V11.3556H54.08V4.35169H55.3279Z" fill="#1E1E1E" style="fill:#1E1E1E;fill:color(display-p3 0.1176 0.1176 0.1176);fill-opacity:1;"/>
<path d="M14.1017 6.61111C14.2738 6.09476 14.3312 5.54972 14.2786 5.00947C14.226 4.46921 14.0491 3.94808 13.7766 3.47954C13.3702 2.77195 12.7487 2.21257 12.0029 1.8779C11.257 1.54323 10.4251 1.45717 9.62671 1.62929C9.2681 1.22289 8.82344 0.897786 8.32626 0.677859C7.82901 0.457931 7.29357 0.343187 6.74851 0.347968C5.93096 0.347968 5.1373 0.601362 4.47274 1.08425C3.81295 1.56235 3.32051 2.24125 3.06712 3.01578C2.53642 3.12574 2.03441 3.34567 1.59456 3.666C1.15471 3.98633 0.786567 4.39271 0.518828 4.86604C0.10766 5.57363 -0.0644543 6.39118 0.0216042 7.20396C0.107663 8.01676 0.447112 8.7817 0.996932 9.38887C0.824814 9.90525 0.767443 10.4503 0.820035 10.9905C0.877405 11.5308 1.04952 12.0519 1.32205 12.5205C1.72843 13.228 2.34996 13.7874 3.0958 14.1221C3.84164 14.4568 4.67354 14.5428 5.47197 14.3707C5.83055 14.7771 6.27518 15.1022 6.77241 15.3222C7.26964 15.5421 7.80508 15.6568 8.35012 15.652C9.16772 15.652 9.96612 15.3986 10.6259 14.9158C11.2857 14.4376 11.7782 13.7587 12.0315 12.9794C12.5622 12.8695 13.0642 12.6495 13.5041 12.3292C13.9439 12.0089 14.3073 11.6025 14.5798 11.1292C14.991 10.4216 15.1631 9.60403 15.0771 8.79123C14.991 7.9785 14.6515 7.21349 14.1017 6.61111ZM8.38365 14.648C7.62344 14.648 7.03061 14.4138 6.51902 13.9834C6.54292 13.9691 6.58117 13.95 6.60986 13.9309L9.65537 12.1715C9.7319 12.1284 9.79402 12.0663 9.83708 11.9898C9.88007 11.9133 9.904 11.8272 9.904 11.7411V7.44779L11.1901 8.1936C11.1901 8.1936 11.2045 8.2032 11.2092 8.208C11.2092 8.21273 11.214 8.22233 11.2188 8.22713V11.7842C11.2188 13.3954 9.87527 14.6528 8.38365 14.6528V14.648ZM2.19219 12.0184C1.85752 11.4399 1.73321 10.7562 1.85274 10.0965C1.87664 10.1108 1.91489 10.1347 1.94358 10.1491L4.98909 11.9085C5.06559 11.9515 5.15165 11.9754 5.2377 11.9754C5.32376 11.9754 5.40982 11.9515 5.48631 11.9085L9.20598 9.76181V11.2487C9.20598 11.2487 9.20598 11.263 9.20598 11.2726C9.20598 11.2774 9.19638 11.287 9.19158 11.2918L6.11263 13.0703C5.45285 13.448 4.67354 13.5532 3.93727 13.3571C3.20099 13.1611 2.57467 12.6783 2.19697 12.0232L2.19219 12.0184ZM1.38898 5.36805C1.72365 4.78476 2.25434 4.34012 2.88065 4.11063V7.73468C2.88065 7.82073 2.90456 7.90678 2.94759 7.98323C2.99062 8.05975 3.05277 8.12195 3.12927 8.16494L6.8489 10.3117L5.56281 11.0575C5.56281 11.0575 5.54847 11.0623 5.54369 11.0671C5.53413 11.0671 5.52934 11.0671 5.51978 11.0671L2.4408 9.28848C1.78102 8.90602 1.30292 8.27972 1.1069 7.54817C0.91088 6.81191 1.01128 6.0326 1.38898 5.37283V5.36805ZM11.9694 7.83026L8.24974 5.68359L9.53586 4.94253C9.53586 4.94253 9.55019 4.93775 9.55499 4.93297H9.57885L12.6579 6.71151C13.1312 6.984 13.5137 7.38567 13.767 7.86852C14.0205 8.35137 14.1256 8.89642 14.0826 9.43673C14.0348 9.9817 13.834 10.4981 13.5041 10.9283C13.1742 11.3635 12.7296 11.6934 12.218 11.8798V8.25579C12.218 8.16974 12.1941 8.08368 12.1511 8.00716C12.108 7.93064 12.0459 7.86852 11.9694 7.82546V7.83026ZM13.2507 5.89874C13.2507 5.89874 13.1885 5.86049 13.1599 5.84615L10.1144 4.08673C10.0378 4.0437 9.95179 4.0198 9.86574 4.0198C9.77969 4.0198 9.68884 4.0437 9.61711 4.08673L5.89748 6.23341V4.74651C5.89748 4.74651 5.89748 4.73217 5.89748 4.72261C5.89748 4.71783 5.90705 4.70826 5.91183 4.70348L8.99082 2.92494C9.46414 2.65242 9.99958 2.51855 10.5446 2.54246C11.0897 2.56636 11.6156 2.74326 12.0602 3.05403C12.5048 3.36479 12.8538 3.79987 13.0642 4.30188C13.2746 4.80388 13.3368 5.35848 13.2459 5.89396L13.2507 5.89874ZM5.19468 8.55221L3.90858 7.8064C3.90858 7.8064 3.89423 7.7968 3.88945 7.792C3.88945 7.78727 3.88467 7.77767 3.8799 7.77287V4.21582C3.8799 3.67078 4.03766 3.14009 4.32931 2.67633C4.62095 2.21735 5.0369 1.84921 5.53413 1.61972C6.02657 1.39023 6.57639 1.30417 7.11666 1.37111C7.6569 1.44282 8.16849 1.66275 8.58442 2.01176C8.56049 2.02611 8.5223 2.04523 8.49357 2.06435L5.44807 3.82378C5.37158 3.8668 5.30942 3.92896 5.26639 4.00545C5.22336 4.08195 5.19946 4.16801 5.19946 4.25406V8.54741L5.19468 8.55221ZM5.8927 7.04619L7.54692 6.08998L9.20118 7.04619V8.95861L7.54692 9.91478L5.8927 8.95861V7.04619Z" fill="#1E1E1E" style="fill:#1E1E1E;fill:color(display-p3 0.1176 0.1176 0.1176);fill-opacity:1;"/>
</g>
<defs>
<clipPath id="clip0_42_32">
<rect width="55.6522" height="16" fill="white" style="fill:white;fill-opacity:1;"/>
</clipPath>
</defs>
</svg>
