<svg width="39" height="16" viewBox="0 0 39 16" fill="none" xmlns="http://www.w3.org/2000/svg">
<g clip-path="url(#clip0_42_47)">
<path fill-rule="evenodd" clip-rule="evenodd" d="M38.1696 9.1392H33.0112C33.1328 10.3744 34.0352 10.7712 35.0592 10.7712C36.1088 10.7712 36.9536 10.5344 37.6512 10.1632V12.288C36.7659 12.7974 35.753 13.0417 34.7328 12.992C32.1664 12.992 30.3616 11.392 30.3616 8.2048C30.3616 5.5232 31.8912 3.392 34.3936 3.392C36.9024 3.392 38.208 5.4912 38.208 8.192C38.208 8.448 38.1824 8.9984 38.1696 9.1392ZM34.3808 5.5424C33.7216 5.5424 32.992 6.0096 32.992 7.1936H35.712C35.712 6.0096 35.0272 5.5424 34.3808 5.5424ZM26.208 12.992C25.2864 12.992 24.7232 12.608 24.352 12.3264L24.3392 15.2896L21.7024 15.8464V3.5648H24.1088L24.16 4.2176C24.7181 3.68818 25.4579 3.39273 26.2272 3.392C28.0832 3.392 29.824 5.056 29.824 8.128C29.824 11.4752 28.096 12.992 26.208 12.992ZM25.6 5.728C24.992 5.728 24.6144 5.9456 24.3392 6.2464L24.352 10.1632C24.608 10.4448 24.9792 10.6624 25.6 10.6624C26.5728 10.6624 27.2256 9.6064 27.2256 8.1856C27.2256 6.8096 26.56 5.728 25.6 5.728ZM18.0736 3.5648H20.7168V12.8064H18.0736V3.5648ZM18.0736 0.5568L20.7168 0V2.1504L18.0736 2.7136V0.5632V0.5568ZM15.3088 6.5408V12.8064H12.672V3.5648H15.04L15.1168 4.3456C15.7568 3.2128 17.0816 3.4432 17.4336 3.5648V5.9904C17.1008 5.8816 15.968 5.7152 15.3088 6.5408ZM9.8368 9.5616C9.8368 11.1168 11.5008 10.6368 11.8336 10.496V12.6464C11.4816 12.8384 10.848 12.992 9.984 12.992C9.6239 13.0025 9.26542 12.9396 8.93038 12.8072C8.59534 12.6748 8.29074 12.4757 8.03511 12.2218C7.77947 11.968 7.57815 11.6648 7.44339 11.3307C7.30862 10.9966 7.24323 10.6386 7.2512 10.2784L7.2576 1.8496L9.8304 1.2992V3.5648H11.84V5.824H9.8368V9.568V9.5616ZM6.6944 10.0096C6.6944 11.9104 5.216 12.992 3.0272 12.992C2.045 12.9913 1.07344 12.7887 0.1728 12.3968V9.8816C1.056 10.3616 2.1568 10.72 3.0272 10.72C3.616 10.72 4.0064 10.5664 4.0064 10.08C4.0064 8.8128 0 9.2864 0 6.368C0 4.5056 1.4592 3.392 3.5968 3.392C4.4672 3.392 5.3376 3.52 6.2144 3.872V6.3552C5.40413 5.92876 4.50582 5.69651 3.5904 5.6768C3.04 5.6768 2.6688 5.8368 2.6688 6.2528C2.6688 7.4368 6.6944 6.8736 6.6944 10.016V10.0096Z" fill="#1E1E1E" style="fill:#1E1E1E;fill:color(display-p3 0.1176 0.1176 0.1176);fill-opacity:1;"/>
</g>
<defs>
<clipPath id="clip0_42_47">
<rect width="38.4" height="16" fill="white" style="fill:white;fill-opacity:1;"/>
</clipPath>
</defs>
</svg>
