<svg width="130" height="16" viewBox="0 0 130 16" fill="none" xmlns="http://www.w3.org/2000/svg">
<g clip-path="url(#clip0_42_79)">
<path d="M40.2964 6.7423H37.9593V11.2463C37.9593 12.4473 38.7519 12.4279 40.2964 12.3533V14.1734C37.1684 14.5494 35.9237 13.6856 35.9237 11.2463V6.7423H34.1895V4.7893H35.9237V2.26904L37.9593 1.66936V4.7893H40.2964V6.7423ZM49.2073 4.7893H51.2429V14.1734H49.2073V12.8217C48.4909 13.8169 47.3775 14.4181 45.9074 14.4181C43.345 14.4181 41.2154 12.2593 41.2154 9.48136C41.2154 6.68557 43.345 4.54619 45.9074 4.54619C47.3775 4.54619 48.4909 5.14586 49.2073 6.12155V4.7893ZM46.2284 12.4846C47.9253 12.4846 49.2073 11.2269 49.2073 9.48136C49.2073 7.73581 47.9253 6.47811 46.2284 6.47811C44.5314 6.47811 43.251 7.73581 43.251 9.48136C43.251 11.2269 44.5314 12.4846 46.2284 12.4846ZM54.6352 3.38249C53.9188 3.38249 53.3337 2.78119 53.3337 2.08751C53.3353 1.91734 53.3694 1.74878 53.4342 1.59157C53.4997 1.43437 53.5955 1.29163 53.7162 1.17149C53.8369 1.05135 53.9801 0.956178 54.1376 0.891404C54.2948 0.826574 54.465 0.792538 54.6352 0.792538C54.8053 0.792538 54.9739 0.826574 55.1327 0.891404C55.2899 0.956234 55.4326 1.05186 55.5541 1.17179C55.6741 1.29335 55.7697 1.43597 55.8361 1.59157C55.901 1.74878 55.935 1.91734 55.935 2.08751C55.935 2.78119 55.3515 3.38249 54.6352 3.38249ZM53.6173 14.1734V4.7893H55.653V14.1734H53.6173ZM58.0095 14.1734V0.473251H60.0452V14.1734H58.0095ZM73.2575 4.7893H75.4066L72.4472 14.1734H70.4488L68.4893 7.84927L66.5104 14.1734H64.512L61.5525 4.7893H63.7016L65.5298 11.2642L67.5087 4.7893H69.4504L71.4099 11.2642L73.2575 4.7893ZM77.9318 3.38249C77.2154 3.38249 76.6319 2.78119 76.6319 2.08751C76.6319 1.91734 76.666 1.74878 76.7308 1.59157C76.7972 1.43597 76.8929 1.29335 77.0128 1.17179C77.1343 1.05186 77.277 0.956234 77.4342 0.891404C77.593 0.826574 77.7616 0.792538 77.9318 0.792538C78.2761 0.792619 78.6065 0.928961 78.8507 1.17179C78.9723 1.29335 79.0679 1.43597 79.1327 1.59157C79.1992 1.74878 79.2332 1.91734 79.2332 2.08751C79.2332 2.78119 78.6481 3.38249 77.9318 3.38249ZM76.9139 14.1734V4.7893H78.9496V14.1734H76.9139ZM89.8831 8.41166V14.1734H87.8475V8.61912C87.8475 7.19124 87.0177 6.44084 85.7357 6.44084C84.3969 6.44084 83.3418 7.23014 83.3418 9.14424V14.1734H81.3062V4.7893H83.3418V5.99027C83.9642 5.01458 84.982 4.54619 86.264 4.54619C88.3742 4.54619 89.8831 5.97244 89.8831 8.41166ZM99.5331 1.03565H101.569V14.1734H99.5331V12.8217C98.8167 13.8169 97.7049 14.4181 96.2348 14.4181C93.6708 14.4181 91.5412 12.2593 91.5412 9.48136C91.5412 6.68557 93.6708 4.54619 96.2348 4.54619C97.7049 4.54619 98.8167 5.14586 99.5331 6.12155V1.03565ZM96.5557 12.4846C98.251 12.4846 99.5331 11.2269 99.5331 9.48136C99.5331 7.73581 98.251 6.47811 96.5557 6.47811C94.8588 6.47811 93.5768 7.73581 93.5768 9.48136C93.5768 11.2269 94.8588 12.4846 96.5557 12.4846ZM103.416 9.48136C103.416 6.68557 105.546 4.54619 108.392 4.54619C110.24 4.54619 111.841 5.50243 112.595 6.96758L110.843 7.98055C110.428 7.09886 109.504 6.53484 108.373 6.53484C106.715 6.53484 105.452 7.79254 105.452 9.48136C105.452 11.1702 106.715 12.4279 108.373 12.4279C109.504 12.4279 110.428 11.846 110.88 10.9838L112.634 11.9773C111.841 13.4603 110.24 14.4181 108.392 14.4181C105.546 14.4181 103.416 12.2593 103.416 9.48136ZM121.058 11.5267C121.058 13.4036 119.418 14.4181 117.382 14.4181C115.497 14.4181 114.141 13.5721 113.538 12.222L115.29 11.2075C115.593 12.0535 116.347 12.5592 117.382 12.5592C118.288 12.5592 118.985 12.2593 118.985 11.5089C118.985 9.83792 113.916 10.7763 113.916 7.41653C113.916 5.65315 115.442 4.54619 117.364 4.54619C118.909 4.54619 120.191 5.25931 120.851 6.49756L119.136 7.45542C118.797 6.72285 118.138 6.38573 117.364 6.38573C116.629 6.38573 115.988 6.7034 115.988 7.37925C115.988 9.08751 121.058 8.0551 121.058 11.5267ZM129.749 11.5267C129.749 13.4036 128.108 14.4181 126.073 14.4181C124.188 14.4181 122.83 13.5721 122.227 12.222L123.98 11.2075C124.282 12.0535 125.035 12.5592 126.073 12.5592C126.977 12.5592 127.674 12.2593 127.674 11.5089C127.674 9.83792 122.604 10.7763 122.604 7.41653C122.604 5.65315 124.131 4.54619 126.053 4.54619C127.6 4.54619 128.882 5.25931 129.541 6.49756L127.825 7.45542C127.486 6.72285 126.826 6.38573 126.053 6.38573C125.319 6.38573 124.677 6.7034 124.677 7.37925C124.677 9.08751 129.749 8.0551 129.749 11.5267Z" fill="#1E1E1E" style="fill:#1E1E1E;fill:color(display-p3 0.1176 0.1176 0.1176);fill-opacity:1;"/>
<path d="M13.5138 0C9.9433 0 7.70991 1.77796 6.81688 5.33387C8.15724 3.55592 9.71964 2.88817 11.5057 3.33225C12.5235 3.58671 13.2512 4.32253 14.0584 5.13776C15.3712 6.46353 16.8914 8 20.2107 8C23.7812 8 26.013 6.22204 26.906 2.66613C25.5673 4.44408 24.0049 5.11021 22.2188 4.66613C21.201 4.41329 20.4717 3.67585 19.6662 2.86224C18.3533 1.53485 16.8331 0 13.5138 0ZM6.81688 8C3.24638 8 1.01461 9.77796 0.121582 13.3339C1.46032 11.5559 3.02272 10.8898 4.80878 11.3339C5.82823 11.5867 6.55594 12.3241 7.36145 13.1378C8.67426 14.4652 10.1945 16 13.5138 16C17.0859 16 19.3177 14.222 20.2107 10.6661C18.8704 12.4441 17.308 13.1118 15.5235 12.6677C14.5041 12.4133 13.7764 11.6775 12.9692 10.8622C11.6564 9.53647 10.1362 8 6.81688 8Z" fill="#1E1E1E" style="fill:#1E1E1E;fill:color(display-p3 0.1176 0.1176 0.1176);fill-opacity:1;"/>
</g>
<defs>
<clipPath id="clip0_42_79">
<rect width="129.87" height="16" fill="white" style="fill:white;fill-opacity:1;"/>
</clipPath>
</defs>
</svg>
