<svg width="71" height="16" viewBox="0 0 71 16" fill="none" xmlns="http://www.w3.org/2000/svg">
<g clip-path="url(#clip0_42_44)">
<path d="M35.26 4C32.5 4 30.51 5.8 30.51 8.5C30.51 11.2 32.75 13 35.51 13C37.1775 13 38.6475 12.34 39.5575 11.2275L37.645 10.1225C37.14 10.675 36.3725 10.9975 35.51 10.9975C34.3125 10.9975 33.295 10.3725 32.9175 9.3725H39.9225C39.9775 9.0925 40.01 8.8025 40.01 8.4975C40.01 5.8 38.02 4 35.26 4ZM32.895 7.625C33.2075 6.6275 34.0625 6 35.2575 6C36.455 6 37.31 6.6275 37.62 7.625H32.895ZM62.18 4C59.42 4 57.43 5.8 57.43 8.5C57.43 11.2 59.67 13 62.43 13C64.0975 13 65.5675 12.34 66.4775 11.2275L64.565 10.1225C64.06 10.675 63.2925 10.9975 62.43 10.9975C61.2325 10.9975 60.215 10.3725 59.8375 9.3725H66.8425C66.8975 9.0925 66.93 8.8025 66.93 8.4975C66.93 5.8 64.94 4 62.18 4ZM59.8175 7.625C60.13 6.6275 60.985 6 62.18 6C63.3775 6 64.2325 6.6275 64.5425 7.625H59.8175ZM50.06 8.5C50.06 10 51.04 11 52.56 11C53.59 11 54.3625 10.5325 54.76 9.77L56.68 10.8775C55.885 12.2025 54.395 13 52.56 13C49.7975 13 47.81 11.2 47.81 8.5C47.81 5.8 49.8 4 52.56 4C54.395 4 55.8825 4.7975 56.68 6.1225L54.76 7.23C54.3625 6.4675 53.59 6 52.56 6C51.0425 6 50.06 7 50.06 8.5ZM70.68 1.25V12.75H68.43V1.25H70.68ZM9.2375 0L18.475 16H0L9.2375 0ZM32.3325 1.25L25.405 13.25L18.4775 1.25H21.075L25.405 8.75L29.735 1.25H32.3325ZM47.06 4.25V6.6725C46.81 6.6 46.545 6.55 46.26 6.55C44.8075 6.55 43.76 7.55 43.76 9.05V12.75H41.51V4.25H43.76V6.55C43.76 5.28 45.2375 4.25 47.06 4.25Z" fill="#1E1E1E" style="fill:#1E1E1E;fill:color(display-p3 0.1176 0.1176 0.1176);fill-opacity:1;"/>
</g>
<defs>
<clipPath id="clip0_42_44">
<rect width="70.75" height="16" fill="white" style="fill:white;fill-opacity:1;"/>
</clipPath>
</defs>
</svg>
