<svg width="60" height="16" viewBox="0 0 60 16" fill="none" xmlns="http://www.w3.org/2000/svg">
<g clip-path="url(#clip0_42_67)">
<path d="M13.9436 10.9688L13.9351 10.9426L19.1796 6.14136V3.82808H10.7658V6.14136H15.7915L15.7997 6.16351L10.6064 10.9688V13.2821H19.264V10.9691L13.9436 10.9688ZM24.4295 3.60797C23.459 3.60797 22.6681 3.7541 22.0568 4.04706C21.4873 4.30218 21.0076 4.72253 20.68 5.25359C20.3665 5.78806 20.1696 6.3828 20.1023 6.99876L22.6551 7.3577C22.7475 6.81358 22.9323 6.42815 23.2092 6.20095C23.5242 5.96336 23.9123 5.84334 24.3064 5.86165C24.8245 5.86165 25.2003 6.00002 25.4339 6.27722C25.6654 6.55419 25.783 6.93779 25.783 7.44356V7.69564H23.3284C22.079 7.69564 21.1814 7.97261 20.6354 8.52679C20.0897 9.08073 19.8173 9.81232 19.8182 10.7211C19.8182 11.6518 20.0906 12.3446 20.6357 12.799C21.1805 13.2531 21.8657 13.4789 22.6911 13.4762C23.7152 13.4762 24.5032 13.1239 25.0544 12.419C25.38 11.986 25.6125 11.4905 25.7374 10.9634H25.8301L26.1819 13.2766H28.4952V7.41844C28.4952 6.2078 28.1762 5.27003 27.538 4.60534C26.9001 3.9402 25.8636 3.60774 24.4295 3.60774V3.60797ZM25.2387 10.8289C24.8715 11.1351 24.3909 11.2874 23.7924 11.2874C23.2992 11.2874 22.9567 11.2011 22.7647 11.0284C22.6711 10.9468 22.5966 10.8455 22.5466 10.7318C22.4965 10.6181 22.4722 10.4948 22.4751 10.3706C22.4697 10.2535 22.4881 10.1364 22.5293 10.0266C22.5706 9.91683 22.6337 9.81657 22.7149 9.73194C22.8026 9.64959 22.9062 9.58589 23.0192 9.54468C23.1323 9.50348 23.2526 9.48562 23.3727 9.49219H25.7871V9.65157C25.792 9.87674 25.7451 10.1 25.65 10.3042C25.5549 10.5084 25.4142 10.6877 25.2387 10.8289ZM42.4831 3.82808H39.7501V13.2835H42.4831V3.82808ZM58.6194 3.82808C57.8474 3.82808 57.2389 4.10049 56.7938 4.64553C56.4744 5.0369 56.2314 5.6155 56.0652 6.38088H55.9848L55.6275 3.82808H53.2934V13.2821H56.0266V8.43385C56.0266 7.8226 56.1696 7.35382 56.4559 7.02799C56.7422 6.70192 57.2704 6.53889 58.0405 6.53889H59.0779V3.82808H58.6194ZM50.581 4.13702C49.9431 3.75753 49.1382 3.56824 48.1668 3.56915C46.6374 3.56915 45.4405 4.00436 44.5762 4.87523C43.7118 5.74611 43.2798 6.9467 43.2798 8.47701C43.2577 9.4021 43.4596 10.3188 43.8684 11.149C44.2425 11.8888 44.8252 12.5028 45.5444 12.9152C46.2684 13.3335 47.1295 13.5431 48.128 13.544C48.9914 13.544 49.7127 13.4111 50.2915 13.1451C50.8359 12.9062 51.31 12.5318 51.6686 12.0575C52.0099 11.5921 52.2633 11.0682 52.4164 10.5117L50.0618 9.85251C49.9625 10.2143 49.7716 10.5445 49.5076 10.8111C49.2416 11.0768 48.7959 11.21 48.1709 11.21C47.4275 11.21 46.8733 10.9972 46.5087 10.5713C46.2438 10.2637 46.0778 9.82465 46.0045 9.25541H52.4525C52.479 8.98939 52.4927 8.76631 52.4927 8.58638V7.9975C52.5082 7.20666 52.3449 6.42253 52.015 5.70364C51.7058 5.04882 51.206 4.50274 50.581 4.13702ZM48.0878 5.82283C49.1959 5.82283 49.8241 6.3681 49.973 7.45886H46.0529C46.115 7.09487 46.2658 6.75178 46.492 6.45989C46.8512 6.03427 47.3832 5.82192 48.0878 5.82283ZM41.1464 0.017381C40.9408 0.0103378 40.7359 0.0447107 40.5438 0.118456C40.3518 0.192201 40.1765 0.303812 40.0285 0.446653C39.8827 0.591024 39.7684 0.764052 39.6928 0.954816C39.6172 1.14558 39.582 1.34994 39.5894 1.555C39.5819 1.76138 39.6172 1.96709 39.6928 2.15925C39.7685 2.3514 39.883 2.52589 40.0292 2.67179C40.1752 2.81781 40.3498 2.93212 40.5421 3.0076C40.7343 3.08307 40.94 3.11807 41.1464 3.11042C41.3515 3.11814 41.5559 3.08309 41.7467 3.00749C41.9375 2.9319 42.1104 2.81742 42.2545 2.67133C42.3976 2.52377 42.5093 2.34876 42.5829 2.15686C42.6564 1.96496 42.6904 1.76015 42.6827 1.55477C42.6922 1.35067 42.659 1.14683 42.5853 0.956295C42.5115 0.765756 42.3988 0.592716 42.2543 0.448251C42.1099 0.303665 41.9368 0.190791 41.7463 0.116837C41.5558 0.0428842 41.3519 0.00947754 41.1478 0.018751L41.1464 0.017381ZM35.5003 3.56915C34.5694 3.56915 33.8214 3.86142 33.2562 4.44596C32.8377 4.87889 32.5308 5.52553 32.3351 6.38522H32.2479L31.8903 3.83242H29.5563V16H32.2892V10.9882H32.389C32.4723 11.3225 32.5893 11.6474 32.7382 11.958C32.9694 12.464 33.3486 12.888 33.8257 13.1741C34.3203 13.4441 34.8775 13.5784 35.4407 13.5634C36.5849 13.5634 37.456 13.1177 38.0545 12.2267C38.653 11.3355 38.9523 10.092 38.9523 8.49619C38.9523 6.95492 38.6626 5.74839 38.0837 4.8766C37.5047 4.00504 36.6436 3.56915 35.5003 3.56915ZM35.7773 10.4204C35.4586 10.8821 34.9601 11.1129 34.2813 11.1129C34.0014 11.1258 33.7225 11.0719 33.4677 10.9555C33.2128 10.8392 32.9894 10.6638 32.8158 10.4439C32.4619 9.99978 32.2856 9.39149 32.2867 8.61949V8.43956C32.2867 7.65545 32.463 7.05516 32.8158 6.63867C33.1683 6.22219 33.6572 6.01623 34.2813 6.0208C34.9722 6.0208 35.4739 6.24 35.7871 6.67886C36.1002 7.11749 36.2566 7.72921 36.2566 8.51423C36.2586 9.32596 36.0997 9.96142 35.7801 10.4204H35.7773Z" fill="#1E1E1E" style="fill:#1E1E1E;fill:color(display-p3 0.1176 0.1176 0.1176);fill-opacity:1;"/>
<path d="M9.54915 10.9688H0.09375V13.2851H9.54915V10.9688Z" fill="#1E1E1E" style="fill:#1E1E1E;fill:color(display-p3 0.1176 0.1176 0.1176);fill-opacity:1;"/>
</g>
<defs>
<clipPath id="clip0_42_67">
<rect width="59.1716" height="16" fill="white" style="fill:white;fill-opacity:1;"/>
</clipPath>
</defs>
</svg>
